<svg xmlns="http://www.w3.org/2000/svg" viewBox="0 0 100 100">
  <!-- Background -->
  <rect width="100" height="100" fill="#FFFFFF" rx="20"/>

  <!-- Building icon representing property management -->
  <g fill="#0B0B0B" stroke="#0B0B0B" stroke-width="1.5">
    <!-- Main building structure -->
    <rect x="25" y="35" width="20" height="45" fill="none" stroke-linecap="round"/>
    <rect x="55" y="25" width="20" height="55" fill="none" stroke-linecap="round"/>

    <!-- Windows on left building -->
    <rect x="29" y="40" width="4" height="5" fill="#0B0B0B"/>
    <rect x="37" y="40" width="4" height="5" fill="#0B0B0B"/>
    <rect x="29" y="50" width="4" height="5" fill="#0B0B0B"/>
    <rect x="37" y="50" width="4" height="5" fill="#0B0B0B"/>
    <rect x="29" y="60" width="4" height="5" fill="#0B0B0B"/>
    <rect x="37" y="60" width="4" height="5" fill="#0B0B0B"/>

    <!-- Windows on right building -->
    <rect x="59" y="30" width="4" height="5" fill="#0B0B0B"/>
    <rect x="67" y="30" width="4" height="5" fill="#0B0B0B"/>
    <rect x="59" y="40" width="4" height="5" fill="#0B0B0B"/>
    <rect x="67" y="40" width="4" height="5" fill="#0B0B0B"/>
    <rect x="59" y="50" width="4" height="5" fill="#0B0B0B"/>
    <rect x="67" y="50" width="4" height="5" fill="#0B0B0B"/>
    <rect x="59" y="60" width="4" height="5" fill="#0B0B0B"/>
    <rect x="67" y="60" width="4" height="5" fill="#0B0B0B"/>

    <!-- Base line -->
    <line x1="20" y1="80" x2="80" y2="80" stroke-width="2" stroke-linecap="round"/>
  </g>

  <!-- Accent element (modern touch) -->
  <circle cx="85" cy="20" r="6" fill="#0B0B0B" opacity="0.8"/>
</svg>
